<svg width="82" height="78" viewBox="0 0 82 78" fill="none" xmlns="http://www.w3.org/2000/svg">
<mask id="mask0_103266_540" style="mask-type:alpha" maskUnits="userSpaceOnUse" x="0" y="0" width="82" height="78">
<rect width="82" height="78" fill="#D9D9D9"/>
</mask>
<g mask="url(#mask0_103266_540)">
<path d="M74.0757 54.7H8.1103C5.80452 54.7 4 56.6 4 59V62.5C4 64.9 5.90477 66.8 8.1103 66.8H9.01257V67.9C9.01257 73.4 13.3234 78 18.6367 78H63.3488C68.6621 78 72.9729 73.5 72.9729 67.9V66.8H73.8752C76.181 66.8 77.9855 64.9 77.9855 62.5V59C78.186 56.7 76.2812 54.7 74.0757 54.7ZM70.1659 67.9C70.1659 71.8 67.1583 74.9 63.449 74.9H18.6367C14.9274 74.9 11.9199 71.7 11.9199 67.9V66.8H70.1659V67.9ZM75.2787 62.5C75.2787 63.2 74.6772 63.8 74.0757 63.8H8.01005C7.30829 63.8 6.80704 63.2 6.80704 62.5V59C6.80704 58.3 7.40854 57.7 8.01005 57.7H73.9754C74.6772 57.7 75.1784 58.3 75.1784 59C75.2787 59 75.2787 62.5 75.2787 62.5Z" fill="#83B3D3"/>
<path d="M19.6392 46.4L25.0528 50.5L30.3661 46.4L35.6794 50.5L40.9927 46.4L46.4063 50.5L51.7196 46.4L57.0329 50.5L62.4465 46.4L67.7598 50.5L73.9754 45.8L72.2711 43.3L67.7598 46.7L62.4465 42.6L57.0329 46.7L51.7196 42.6L46.4063 46.7L40.9927 42.6L35.6794 46.7L30.3661 42.6L25.0528 46.7L19.6392 42.6L14.3259 46.7L9.81458 43.3L8.1103 45.8L14.3259 50.5L19.6392 46.4Z" fill="#83B3D3"/>
<path d="M12.0201 39.5H72.9729C72.9729 38.9 73.0732 38.3 73.0732 37.6C73.0732 37.2 73.0732 36.8 73.0732 36.4C72.3714 20.7 58.3362 8 41.093 8C23.7495 8 9.71432 20.7 9.01257 36.5C9.01257 36.9 9.01257 37.3 9.01257 37.7C9.01257 38.3 9.00815 38.9 9.1084 39.5H12.0201ZM41.093 11C56.7322 11 69.5644 22.3 70.1659 36.5H12.0201C12.6216 22.4 25.4538 11 41.093 11Z" fill="#83B3D3"/>
<path d="M41.093 25.3C42.145 25.3 42.9978 24.4046 42.9978 23.3C42.9978 22.1954 42.145 21.3 41.093 21.3C40.041 21.3 39.1882 22.1954 39.1882 23.3C39.1882 24.4046 40.041 25.3 41.093 25.3Z" fill="#83B3D3"/>
<path d="M33.2734 20.2C34.3254 20.2 35.1782 19.3046 35.1782 18.2C35.1782 17.0954 34.3254 16.2 33.2734 16.2C32.2214 16.2 31.3686 17.0954 31.3686 18.2C31.3686 19.3046 32.2214 20.2 33.2734 20.2Z" fill="#83B3D3"/>
<path d="M48.8123 20.2C49.8643 20.2 50.7171 19.3046 50.7171 18.2C50.7171 17.0954 49.8643 16.2 48.8123 16.2C47.7604 16.2 46.9076 17.0954 46.9076 18.2C46.9076 19.3046 47.7604 20.2 48.8123 20.2Z" fill="#83B3D3"/>
</g>
</svg>
