<svg width="82" height="78" viewBox="0 0 82 78" fill="none" xmlns="http://www.w3.org/2000/svg">
<mask id="mask0_103266_539" style="mask-type:alpha" maskUnits="userSpaceOnUse" x="0" y="0" width="82" height="78">
<rect width="82" height="78" fill="#D9D9D9"/>
</mask>
<g mask="url(#mask0_103266_539)">
<path d="M33.6185 71H49.6827V47.2H33.6185V71ZM36.5301 50.1H46.6707V68.1H36.5301V50.1Z" fill="#83B3D3"/>
<path d="M76.8916 45.3L79 43.2L69.0602 33.3V6H55.1044V19.6L41.4498 6L4 43.2L6.10843 45.3L13.9398 37.5V75.1H9.92369V78H74.0803V75.1H68.9598V37.5L76.8916 45.3ZM66.0482 75.1H16.8514V34.5L41.4498 10.1L66.0482 34.5V75.1ZM66.0482 30.4L58.1165 22.5V8.9H66.0482V30.4Z" fill="#83B3D3"/>
<path d="M33.8193 33.1C33.8193 37.4 37.3333 40.8 41.5502 40.8C45.8675 40.8 49.3815 37.3 49.3815 33.1C49.3815 28.8 45.8675 25.4 41.5502 25.4C37.3333 25.4 33.8193 28.8 33.8193 33.1ZM41.6506 28.1C44.3614 28.1 46.6707 30.3 46.6707 33C46.6707 35.7 44.4618 37.9 41.6506 37.9C38.9398 37.9 36.6305 35.7 36.6305 33C36.6305 30.3 38.8394 28.1 41.6506 28.1Z" fill="#83B3D3"/>
<path d="M23.9799 47.2H20.9679V51.1H23.9799V47.2Z" fill="#83B3D3"/>
<path d="M29.9036 47.2H26.8916V51.1H29.9036V47.2Z" fill="#83B3D3"/>
<path d="M23.9799 53.2H20.9679V57.1H23.9799V53.2Z" fill="#83B3D3"/>
<path d="M29.9036 53.2H26.8916V57.1H29.9036V53.2Z" fill="#83B3D3"/>
<path d="M56.008 47.2H52.996V51.1H56.008V47.2Z" fill="#83B3D3"/>
<path d="M61.9317 47.2H58.9197V51.1H61.9317V47.2Z" fill="#83B3D3"/>
<path d="M56.008 53.2H52.996V57.1H56.008V53.2Z" fill="#83B3D3"/>
<path d="M61.9317 53.2H58.9197V57.1H61.9317V53.2Z" fill="#83B3D3"/>
</g>
</svg>
