<svg width="82" height="78" viewBox="0 0 82 78" fill="none" xmlns="http://www.w3.org/2000/svg">
<mask id="mask0_103266_538" style="mask-type:alpha" maskUnits="userSpaceOnUse" x="0" y="0" width="82" height="78">
<rect width="82" height="78" fill="#D9D9D9"/>
</mask>
<g mask="url(#mask0_103266_538)">
<path d="M70.1 24.4625H70H45.3C59.1 17.5576 60.2 13.1546 59.7 10.7529C58.5 6.75007 54 3.74797 49.7 5.34909C44.1 7.45056 42.6 15.7564 41.1 21.7606C39.1 15.6563 37.3 7.95091 32.9 4.04818C31.6 2.94741 29.8 1.74657 27.1 2.04678C23.1 2.44706 17.3 7.45056 19.6 13.0545C21.9 18.4583 29.3 21.8607 34.2 24.5626H12.2H11.9C10.3 24.5626 9 25.8635 9 27.4646V38.7725C9 40.3736 10.3 41.6745 11.9 41.6745H12.2V74.9979V77.3996V78H70V77.4996V74.9979V41.5745H70.1C71.7 41.5745 73 40.2736 73 38.6724V27.3645C73 25.7634 71.7 24.4625 70.1 24.4625ZM51.4 7.85084C53.5 7.55063 56.4 9.15176 56.7 11.0531C57.1 13.8551 53.3 16.3568 51.6 17.4576C49.1 19.1588 46.7 20.0594 44.3 21.5604C45.2 17.8579 46.8 8.55133 51.4 7.85084ZM28.5 17.8579C26.3 16.3568 22 13.4548 22.1 10.0524C22.2 6.44986 27.8 3.44776 30.9 6.14965C34.8 9.55204 36.6 17.2574 38 22.7613C34.8 21.2602 31.7 19.9593 28.5 17.8579ZM34.5 74.9979H15.1V41.5745H34.5V74.9979ZM34.5 38.4723H12V27.4646H34.5V38.4723ZM44.7 38.4723V41.4744V74.9979H37.5V41.5745V38.5724V27.5647H44.7V38.4723ZM67 74.9979H47.6V41.5745H67V74.9979ZM69.9 38.4723H47.6V27.4646H69.9V38.4723V38.4723Z" fill="#83B3D3"/>
</g>
</svg>
